<?xml version="1.0" encoding="UTF-8" standalone="no"?>
<svg
   width="1024px"
   height="1024px"
   viewBox="0 0 1024 1024"
   class="icon"
   version="1.1"
   id="svg260"
   sodipodi:docname="arrow-up.svg"
   inkscape:version="1.2.1 (9c6d41e410, 2022-07-14)"
   xmlns:inkscape="http://www.inkscape.org/namespaces/inkscape"
   xmlns:sodipodi="http://sodipodi.sourceforge.net/DTD/sodipodi-0.dtd"
   xmlns="http://www.w3.org/2000/svg"
   xmlns:svg="http://www.w3.org/2000/svg">
  <defs
     id="defs264" />
  <sodipodi:namedview
     id="namedview262"
     pagecolor="#ffffff"
     bordercolor="#000000"
     borderopacity="0.25"
     inkscape:showpageshadow="2"
     inkscape:pageopacity="0.0"
     inkscape:pagecheckerboard="0"
     inkscape:deskcolor="#d1d1d1"
     showgrid="false"
     inkscape:zoom="0.76367188"
     inkscape:cx="512.65473"
     inkscape:cy="513.96419"
     inkscape:window-width="2560"
     inkscape:window-height="1008"
     inkscape:window-x="0"
     inkscape:window-y="0"
     inkscape:window-maximized="1"
     inkscape:current-layer="svg260" />
  <path
     d="M868 545.5L536.1 163a31.96 31.96 0 0 0-48.3 0L156 545.5a7.97 7.97 0 0 0 6 13.2h81c4.6 0 9-2 12.1-5.5L474 300.9V864c0 4.4 3.6 8 8 8h60c4.4 0 8-3.6 8-8V300.9l218.9 252.3c3 3.5 7.4 5.5 12.1 5.5h81c6.8 0 10.5-8 6-13.2z"
     id="path258"
     style="fill:#ffffff" />
</svg>
